<svg xmlns="http://www.w3.org/2000/svg" viewBox="0 0 24 24">
  <circle cx="12" cy="12" r="12" fill="#1d6b35"/>
  <path d="M7 18h10" stroke="#ffffff" stroke-width="0.7" stroke-linecap="round"/>
  <path d="M10 18c5.5-2.5.8-6.4 3-10" stroke="#ffffff" stroke-width="0.7" stroke-linecap="round"/>
  <path d="M9.5 9.4c1.1.8 1.8 2.2 2.3 3.7-2 .4-3.5.4-4.8-.3-1.2-.6-2.3-1.9-3-4.2 2.8-.5 4.4 0 5.5.8z" fill="#ffffff"/>
  <path d="M14.1 6a7 7 0 0 0-1.1 4c1.9-.1 3.3-.6 4.3-1.4 1-1 1.6-2.3 1.7-4.6-2.7.1-4 1-4.9 2z" fill="#ffffff"/>
</svg>
